<?xml version="1.0" standalone="no"?>
<!DOCTYPE svg PUBLIC "-//W3C//DTD SVG 20010904//EN"
 "http://www.w3.org/TR/2001/REC-SVG-20010904/DTD/svg10.dtd">
<svg version="1.0" xmlns="http://www.w3.org/2000/svg"
 width="500.000000pt" height="500.000000pt" viewBox="0 0 500.000000 500.000000"
 preserveAspectRatio="xMidYMid meet">
<metadata>
Created by potrace 1.16, written by Peter Selinger 2001-2019
</metadata>
<g transform="translate(0.000000,500.000000) scale(0.100000,-0.100000)"
fill="#000000" stroke="none">
<path d="M2290 4584 c-177 -21 -369 -65 -500 -115 -30 -11 -72 -27 -93 -34
-39 -15 -162 -75 -232 -115 -267 -150 -533 -398 -709 -664 -145 -217 -271
-530 -316 -781 -51 -285 -34 -693 39 -925 12 -36 21 -71 21 -78 0 -8 6 -28 14
-45 7 -18 23 -59 36 -92 151 -395 444 -756 804 -993 94 -61 331 -181 427 -215
113 -40 249 -75 384 -98 232 -41 601 -27 819 32 153 41 182 49 201 58 11 4 47
19 80 31 95 36 291 139 390 205 261 175 503 433 648 691 129 230 195 410 253
689 22 105 31 466 15 602 -44 368 -186 726 -405 1019 -148 197 -343 378 -550
512 -85 54 -345 179 -441 211 -240 80 -369 101 -635 106 -118 2 -231 1 -250
-1z m750 -1276 c0 -150 -3 -391 -7 -535 l-6 -262 -86 -3 -86 -3 0 -90 0 -90
86 -3 86 -3 6 -136 c4 -74 4 -193 0 -263 l-6 -128 -161 -7 c-89 -3 -330 -5
-536 -3 l-375 3 -3 85 c-2 47 0 167 3 267 l7 182 87 3 86 3 5 83 c3 47 1 87
-4 93 -6 5 -47 9 -92 9 l-81 0 -2 408 c-1 224 -4 461 -6 526 -3 65 -2 123 1
127 3 5 248 9 545 9 l539 0 0 -272z m-1265 -1075 l0 -88 -177 -3 -178 -2 0 95
0 96 178 -5 177 -4 0 -89z m1795 -5 l0 -91 -127 6 c-71 4 -149 7 -175 7 l-48
0 0 85 0 84 103 3 c56 2 135 2 175 0 l72 -4 0 -90z m-723 -632 c1 0 3 -77 5
-171 l3 -170 -357 -3 -358 -2 0 179 0 179 353 -5 c193 -3 353 -6 354 -7z"/>
</g>
</svg>
